<svg width="221" height="67" viewBox="0 0 221 67" fill="none" xmlns="http://www.w3.org/2000/svg">
<path d="M8.11998 32.16V23.28H17.72C25.16 23.28 29.96 19.008 29.96 11.616C29.96 4.224 25.16 0 17.72 0H0.919983V32.16H8.11998ZM16.952 6.48C20.936 6.48 22.808 7.68 22.808 11.616C22.808 15.648 20.936 16.8 16.952 16.8H8.11998V6.48H16.952Z" fill="#00F090"/>
<path d="M39.7137 32.16V18.24C39.7137 15.216 40.8657 13.728 44.0817 13.728C47.0097 13.728 48.0657 14.88 48.0657 17.52V20.016H55.2657V16.032C55.2657 11.328 53.0577 7.632 47.6817 7.632C42.8337 7.632 40.2897 10.608 39.6177 14.496H39.1857V8.112H32.5137V32.16H39.7137Z" fill="#00F090"/>
<path d="M70.6891 32.64C78.8971 32.64 84.4171 27.744 84.4171 20.16C84.4171 12.48 78.8971 7.632 70.6891 7.632C62.4811 7.632 56.9611 12.48 56.9611 20.16C56.9611 27.744 62.4811 32.64 70.6891 32.64ZM70.6891 26.256C65.7931 26.256 64.1131 24.384 64.1131 20.16C64.1131 15.936 65.7931 13.968 70.6891 13.968C75.5371 13.968 77.2651 15.936 77.2651 20.16C77.2651 24.384 75.5371 26.256 70.6891 26.256Z" fill="#00F090"/>
<path d="M94.5575 32.16V0H87.3575V32.16H94.5575Z" fill="#00F090"/>
<path d="M108.886 29.712C114.262 29.712 117.094 27.264 117.862 23.712H118.246V29.136C118.246 33.84 116.854 34.8 112.246 34.8C107.35 34.8 106.294 33.984 106.294 31.296H99.0942C99.0942 37.344 103.99 40.8 111.766 40.8C120.358 40.8 125.446 37.056 125.446 28.656V8.112H118.726V13.92H118.342C117.574 9.744 114.07 7.632 109.174 7.632C101.974 7.632 97.6062 11.952 97.6062 18.672C97.6062 25.44 101.734 29.712 108.886 29.712ZM104.854 18.672C104.854 15.12 106.87 13.872 111.478 13.872C115.942 13.872 118.246 15.12 118.246 18.384V18.912C118.246 22.224 115.99 23.52 111.382 23.52C106.87 23.52 104.854 22.224 104.854 18.672Z" fill="#00F090"/>
<path d="M136.464 32.16V18.24C136.464 15.216 137.616 13.728 140.832 13.728C143.76 13.728 144.816 14.88 144.816 17.52V20.016H152.016V16.032C152.016 11.328 149.808 7.632 144.432 7.632C139.584 7.632 137.04 10.608 136.368 14.496H135.936V8.112H129.264V32.16H136.464Z" fill="#00F090"/>
<path d="M167.391 32.64C175.023 32.64 180.111 28.992 180.111 23.76V23.232H172.911V23.712C172.911 25.776 171.423 26.88 167.151 26.88C162.495 26.88 160.767 25.296 160.575 21.6H180.159C180.255 20.784 180.351 20.16 180.351 19.296C180.351 11.76 175.119 7.632 167.247 7.632C159.327 7.632 153.903 12.48 153.903 20.16C153.903 28.704 159.375 32.64 167.391 32.64ZM167.103 13.248C171.327 13.248 173.247 14.64 173.439 17.808H160.671C161.007 14.688 162.831 13.248 167.103 13.248Z" fill="#00F090"/>
<path d="M200.348 32.16V25.68H196.028C193.484 25.68 192.572 25.056 192.572 22.656V14.064H200.348V8.112H192.572V3.456H185.372V8.112H181.58V14.064H185.372V23.472C185.372 29.52 188.78 32.16 194.396 32.16H200.348Z" fill="#00F090"/>
<path d="M79 63.8296C109 53.163 179 36.6296 219 55.8296" stroke="white" stroke-width="6"/>
</svg>
